<?xml version="1.0" encoding="UTF-8" standalone="no"?>
<svg xmlns="http://www.w3.org/2000/svg" xmlns:xlink="http://www.w3.org/1999/xlink" width="310px" height="430px" viewBox="0 0 310 430" zoomAndPan="disable">

<!-- Column 1 -->
<polygon class="hex" points="0,-42 25,-42 50,0 25,42 0,42" />
<polygon class="hex" points="0,44 25,44 50,86 25,128 0,128" />
<polygon class="hex" points="0,130 25,130 50,172 25,214 0,214" />
<polygon class="hex" points="0,216 25,216 50,258 25,300 0,300" />
<polygon class="hex" points="0,302 25,302 50,344 25,386 0,386" />
<polygon class="hex" points="0,388 25,388 50,430 25,472 0,472" />

<!-- Column 2 -->
<polygon class="hex" points="27,43 52,1 102,1 127,43 102,85 52,85" />
<polygon class="hex a1" points="27,129 52,87 102,87 127,129 102,171 52,171" />
<polygon class="hex" points="27,215 52,173 102,173 127,215 102,257 52,257" />
<polygon class="hex" points="27,301 52,259 102,259 127,301 102,343 52,343" />
<polygon class="hex" points="27,387 52,345 102,345 127,387 102,429 52,429" />

<!-- Column 3 -->
<polygon class="hex" points="104,0 129,-42 179,-42 204,0 179,42 129,42" />
<polygon class="hex" points="104,86 129,44 179,44 204,86 179,128 129,128" />
<polygon class="hex" points="104,172 129,130 179,130 204,172 179,214 129,214" />
<polygon class="hex" points="104,258 129,216 179,216 204,258 179,300 129,300" />
<polygon class="hex" points="104,344 129,302 179,302 204,344 179,386 129,386" />
<polygon class="hex" points="104,430 129,388 179,388 204,430 179,472 129,472" />

<!-- Column 4 -->
<polygon class="hex" points="181,43 206,1 256,1 281,43 256,85 206,85" />
<polygon class="hex" points="181,129 206,87 256,87 281,129 256,171 206,171" />
<polygon class="hex" points="181,215 206,173 256,173 281,215 256,257 206,257" />
<polygon class="hex" points="181,301 206,259 256,259 281,301 256,343 206,343" />
<polygon class="hex" points="181,387 206,345 256,345 281,387 256,429 206,429" />

<!-- Column 5 -->
<polygon class="hex" points="258,0 283,-42 333,-42 358,0 333,42 283,42" />
<polygon class="hex" points="258,86 283,44 333,44 358,86 333,128 283,128" />
<polygon class="hex" points="258,172 283,130 333,130 358,172 333,214 283,214" />
<polygon class="hex" points="258,258 283,216 333,216 358,258 333,300 283,300" />
<polygon class="hex" points="258,344 283,302 333,302 358,344 333,386 283,386" />
<polygon class="hex" points="258,430 283,388 333,388 358,430 333,472 283,472" />

</svg>